<svg version="1.1" id="Layer_1" xmlns="http://www.w3.org/2000/svg" xmlns:xlink="http://www.w3.org/1999/xlink" x="0px" y="0px"
	 width="100%" viewBox="0 0 512 512" enable-background="new 0 0 512 512" xml:space="preserve">
<path fill="#FFD666" opacity="1.000000" stroke="none" 
	d="
M133.306091,470.186676 
	C147.656830,447.394012 161.735794,424.861450 176.747482,400.836090 
	C169.901276,398.550690 164.696655,396.233154 159.246567,395.145111 
	C152.865677,393.871277 146.263306,393.735229 139.770691,392.986877 
	C125.894981,391.387421 112.375290,388.570435 99.706924,382.271698 
	C80.935997,372.938812 66.891335,358.427460 55.301884,341.481110 
	C46.423115,328.498322 38.335842,314.962097 30.199179,301.489258 
	C26.323078,295.071167 21.523569,290.009735 14.610059,286.956543 
	C12.676194,286.102478 10.746365,284.914490 9.265018,283.430267 
	C6.444564,280.604309 8.133441,274.518066 12.070260,274.176392 
	C17.837477,273.675873 23.875780,273.260681 29.467272,274.414520 
	C40.645996,276.721405 51.868122,279.372375 62.587238,283.229401 
	C81.265961,289.950439 99.822845,297.139465 117.959579,305.193451 
	C130.793518,310.892639 140.982452,320.461517 150.149445,331.251038 
	C162.712128,346.037201 171.011612,363.244690 179.675308,380.289673 
	C180.538269,381.987396 180.514709,384.135773 181.091705,387.020508 
	C187.404236,379.808716 189.641678,373.204071 187.105225,364.641541 
	C184.088211,354.456696 182.589676,343.832703 179.935410,333.527222 
	C175.881149,317.786224 171.969543,301.963959 164.729782,287.260956 
	C161.189758,280.071625 157.399246,273.001343 154.019760,265.738647 
	C151.586075,260.508575 147.329269,258.033508 142.269028,255.909927 
	C124.261322,248.352875 108.080101,238.071732 93.684952,224.636093 
	C82.759377,214.438782 73.586647,203.185699 66.567177,190.093872 
	C59.463039,176.844131 54.411472,163.019760 51.696663,148.044006 
	C49.654015,136.776093 50.057297,125.659935 50.142540,114.493721 
	C50.230659,102.950958 52.649040,91.643387 56.666740,80.764877 
	C62.080803,66.105515 67.595573,51.483376 73.033813,36.832897 
	C74.756889,32.190956 75.751823,27.138922 78.239563,22.965841 
	C80.154427,19.753752 83.510178,16.306910 86.901901,15.341247 
	C91.304947,14.087650 94.783768,17.789698 97.174126,21.582003 
	C101.041618,27.717766 103.924347,34.742527 108.784828,39.927807 
	C118.669380,50.472855 129.421722,60.233414 140.144684,69.955223 
	C150.269897,79.135086 160.502914,88.330139 167.794098,99.887268 
	C176.472992,113.644066 183.855316,128.188339 186.036072,144.720673 
	C186.971115,151.809250 189.195740,158.963425 188.729950,165.947433 
	C187.976883,177.239014 186.002365,188.526230 183.608963,199.613510 
	C179.886963,216.855286 173.894882,233.671997 174.060287,251.594482 
	C174.120270,258.093292 176.023346,264.054382 179.182831,269.987274 
	C183.790665,278.639923 187.431305,287.859894 190.871368,297.067047 
	C194.174057,305.906586 196.817780,315.001556 199.511642,324.055542 
	C200.937729,328.848541 201.798126,333.807373 203.030029,338.661865 
	C203.492020,340.482391 204.283020,342.219482 205.021301,344.263977 
	C208.795334,337.738434 212.226456,331.760376 215.701294,325.807892 
	C221.458282,315.946014 226.988007,305.939178 233.086044,296.292145 
	C239.632309,285.935944 246.652267,275.875153 253.600082,265.778076 
	C259.056946,257.847778 264.461975,249.859573 270.354095,242.256729 
	C277.734344,232.733643 285.585358,223.575256 293.241852,214.266586 
	C295.010132,212.116730 297.013855,210.130325 298.557556,207.832428 
	C301.443268,203.536911 297.091980,200.880142 295.362488,198.369415 
	C288.293762,188.107773 282.992096,177.022446 279.132751,165.318924 
	C276.317902,156.782867 273.900665,147.956558 272.756226,139.072845 
	C271.573334,129.890503 271.854706,120.476524 272.049225,111.175446 
	C272.171295,105.337448 273.154694,99.496796 274.030090,93.699371 
	C276.052734,80.304634 281.287964,68.071037 288.734161,56.905476 
	C295.704987,46.452732 304.126465,37.149864 313.971893,29.251728 
	C324.352020,20.924652 334.743011,12.608381 345.263306,4.460461 
	C348.521332,1.937117 354.987030,4.546060 356.156250,8.687989 
	C356.721222,10.689418 357.093048,12.872216 356.942932,14.928400 
	C355.840912,30.023081 359.214752,44.408215 363.285858,58.767117 
	C367.520386,73.702560 372.125946,88.438377 373.360504,104.228935 
	C374.375824,117.215714 374.220612,130.104095 371.605621,142.481552 
	C368.544403,156.971359 362.296814,170.464020 353.303162,182.849274 
	C344.166168,195.431946 332.502533,204.698883 320.543579,214.068512 
	C316.045502,217.592667 312.556610,222.640106 309.290222,227.456070 
	C300.297546,240.714966 291.112854,253.894501 283.019592,267.700745 
	C270.503174,289.052460 258.836029,310.901886 246.796890,332.533630 
	C240.835922,343.244202 234.778473,353.901703 228.895432,364.654724 
	C224.275558,373.098969 219.742218,381.596069 215.449280,390.208710 
	C214.640106,391.832123 214.558044,394.300629 215.130554,396.056274 
	C221.626389,415.976257 230.085663,435.008759 243.758392,451.102203 
	C256.376984,465.954926 271.809875,477.063782 290.646027,483.046936 
	C297.620514,485.262390 298.982269,487.335419 299.037537,493.233337 
	C299.079346,497.695343 296.397736,500.066925 292.658875,499.830109 
	C286.403107,499.433838 279.770874,499.054291 274.099884,496.718628 
	C265.243164,493.070801 256.702850,488.338226 248.661179,483.094879 
	C232.637680,472.647308 220.095261,458.866150 211.766647,441.452026 
	C208.384888,434.381165 204.809631,427.402863 201.078552,419.891479 
	C196.703705,428.014771 192.337387,436.061981 188.026764,444.138916 
	C179.319641,460.453644 170.903931,477.014099 158.997162,491.273407 
	C151.892517,499.781799 142.217484,504.703430 131.028900,505.933533 
	C127.813332,506.287048 124.045921,506.837860 121.336555,505.573364 
	C114.029251,502.162903 112.991455,496.393188 118.006935,489.591553 
	C121.854759,484.373352 126.112625,479.458313 130.160355,474.386261 
	C131.173294,473.116974 132.079193,471.762238 133.306091,470.186676 
M162.676300,149.169052 
	C159.595581,140.420502 156.903214,131.510178 153.342178,122.961723 
	C148.137863,110.468475 138.738113,100.807457 129.065765,91.902412 
	C115.964211,79.840172 101.730637,69.006012 91.343369,54.377480 
	C88.429741,61.890869 85.856689,69.470512 82.589783,76.738258 
	C77.120377,88.905830 73.093521,101.520126 72.155258,114.766754 
	C71.193283,128.348053 72.571533,141.748657 76.758308,155.001358 
	C80.714996,167.525711 85.582787,179.347519 92.667747,190.455597 
	C101.572121,204.416229 112.610001,216.066772 126.519279,224.961502 
	C132.669785,228.894638 139.059769,232.453278 145.910858,236.520157 
	C140.560944,225.875381 135.284836,216.327606 130.921204,206.379578 
	C127.715073,199.070374 122.995255,195.158951 115.060265,193.659943 
	C111.728287,193.030457 108.652649,189.342896 106.159340,186.444412 
	C103.565910,183.429550 105.251228,180.058350 109.212898,180.104691 
	C112.676926,180.145218 116.130630,181.068146 119.742386,181.624924 
	C118.213966,177.577713 116.687645,173.561935 115.182045,169.538391 
	C114.432739,167.535934 113.468422,166.556732 110.995438,165.763290 
	C103.498695,163.357971 95.628441,160.761017 91.632957,153.110031 
	C90.431671,150.809662 90.468056,147.476532 91.050583,144.864792 
	C91.227028,144.073700 95.434486,143.290543 97.282021,143.947662 
	C101.206924,145.343658 104.794594,147.687744 108.950996,149.869095 
	C105.908096,141.754883 102.720901,134.065796 100.187073,126.167122 
	C98.864487,122.044243 98.609619,117.563469 98.029388,113.223366 
	C97.657700,110.443115 98.036613,107.177910 101.375443,107.281334 
	C103.293259,107.340729 106.114769,109.696388 106.835281,111.644836 
	C110.511681,121.586853 113.633972,131.733688 116.953728,141.807693 
	C118.563553,146.692810 120.118294,151.597260 121.810196,156.453857 
	C124.317017,163.649704 126.682457,170.908798 129.548630,177.961929 
	C133.152878,186.831345 137.027695,195.602341 141.118225,204.258698 
	C143.948334,210.247742 147.340744,215.971100 151.251389,223.244308 
	C155.317871,206.409973 159.677490,191.064667 162.531723,175.444275 
	C164.034256,167.221436 162.906494,158.517944 162.676300,149.169052 
M351.045471,139.809372 
	C352.363251,135.004013 354.412903,130.266388 354.865021,125.380913 
	C356.376312,109.050713 353.374298,93.173157 349.025513,77.484306 
	C346.190613,67.256897 343.548187,56.974205 340.969391,46.678741 
	C340.007629,42.839085 339.471588,38.892780 338.579315,34.129654 
	C310.607178,52.920105 292.991302,77.609215 289.396332,110.597328 
	C286.462738,137.516647 292.290863,162.933533 307.307831,186.753540 
	C308.988312,177.685837 310.465057,169.588821 311.996460,161.502167 
	C312.918396,156.633759 313.732300,152.505890 308.587830,148.490768 
	C305.208862,145.853577 303.660187,140.439636 302.163269,135.976913 
	C301.192200,133.081848 303.247528,131.485199 306.367767,132.792679 
	C308.960754,133.879227 311.460236,135.188950 314.719299,136.742065 
	C314.401245,132.133118 316.764191,128.037354 313.912933,123.372925 
	C310.423859,117.665047 307.800446,111.424614 304.855530,105.388702 
	C302.950653,101.484383 303.300293,97.598717 307.194275,95.524010 
	C310.780426,93.613319 313.182343,96.371880 314.938416,99.413765 
	C316.002808,101.257484 317.183441,103.034065 318.777710,105.586754 
	C319.635590,99.675697 319.866089,94.722145 321.168365,90.068527 
	C322.449829,85.489357 324.549866,81.064270 326.878418,76.900208 
	C327.550171,75.698860 330.272644,75.180954 332.012177,75.262497 
	C332.732574,75.296265 333.626221,77.668030 333.919312,79.084488 
	C334.210876,80.493713 334.036377,82.077042 333.741089,83.517349 
	C331.864075,92.672630 329.424438,101.740410 328.076141,110.969376 
	C326.284241,123.234856 325.238098,135.613235 324.028717,147.958527 
	C323.213440,156.280869 322.833588,164.647354 321.945374,172.960571 
	C321.376831,178.281647 320.236969,183.541641 319.353241,188.829025 
	C319.816925,189.134750 320.280609,189.440475 320.744263,189.746201 
	C327.996826,180.497452 335.901825,171.671494 342.267181,161.847916 
	C346.352905,155.542419 348.170990,147.767563 351.045471,139.809372 
M107.646027,318.945496 
	C87.922699,311.228851 68.199379,303.512177 48.476055,295.795532 
	C48.646267,297.973541 49.317619,299.053040 50.018017,300.113312 
	C61.191822,317.028717 70.355484,335.329254 84.949066,349.878326 
	C95.405548,360.302917 107.299118,368.283508 121.683311,371.923950 
	C129.034180,373.784363 136.608078,374.795776 144.108994,376.020355 
	C149.845413,376.956848 155.625519,377.625641 162.102081,378.511383 
	C161.178864,376.669525 160.786743,375.612671 160.173157,374.705627 
	C154.126984,365.768372 147.879501,356.962708 142.010849,347.911072 
	C133.615097,334.961792 121.956688,325.941528 107.646027,318.945496 
z"/>
<path fill="#FFD666" opacity="1.000000" stroke="none" 
	d="
M489.282288,264.708435 
	C497.686646,275.270172 500.191772,287.479034 502.100861,300.086853 
	C504.611938,316.670593 502.211273,332.807159 497.801971,348.557983 
	C493.337311,364.506592 486.198456,379.298920 474.315216,391.460907 
	C465.813934,400.161499 454.868896,404.197632 444.217438,409.071503 
	C438.402985,411.732086 433.141205,415.594482 427.609100,418.879456 
	C419.466003,423.714935 410.719299,426.643707 401.318085,428.106903 
	C393.393738,429.340179 385.800873,430.526123 377.657043,428.490814 
	C364.557587,425.217041 354.306335,418.769775 347.919617,406.679199 
	C347.786194,406.426636 347.455536,406.278229 347.038086,405.933655 
	C342.362640,410.296448 337.865326,414.900543 332.947266,418.999878 
	C321.703644,428.371765 308.250519,432.547516 294.250946,429.601959 
	C281.539307,426.927429 272.693329,417.549652 269.158478,404.802795 
	C264.441406,387.792694 267.315033,371.785950 275.287445,355.782318 
	C283.013947,340.272278 294.432129,328.440582 306.785187,317.061005 
	C314.148712,310.277802 321.257477,303.120636 329.267273,297.194641 
	C331.728088,295.374023 337.169678,296.087463 340.567902,297.398743 
	C345.039429,299.124207 346.722290,305.185913 343.987305,309.359589 
	C340.558044,314.592743 336.275787,319.326752 331.983185,323.922668 
	C321.038239,335.640900 310.469025,347.644135 302.131073,361.411346 
	C295.887085,371.721069 291.120148,382.667908 290.065186,394.815491 
	C289.202454,404.749817 298.346191,414.590271 308.629608,410.559967 
	C313.384979,408.696198 318.027344,405.835205 321.844543,402.440765 
	C328.832031,396.227173 335.486877,389.333099 338.667328,380.344879 
	C340.417694,375.398285 339.980560,369.721802 341.069427,364.486664 
	C342.737427,356.467072 344.555359,348.451202 346.870941,340.599274 
	C352.294128,322.209839 361.538361,305.634003 372.548401,290.111969 
	C382.399872,276.223236 394.053619,264.111908 409.024231,255.350861 
	C421.729919,247.915237 435.247345,243.999146 449.783203,245.142685 
	C465.208527,246.356171 479.474152,250.859222 489.282288,264.708435 
M411.473053,286.924500 
	C408.337769,290.094910 404.646759,292.885834 402.173157,296.508118 
	C395.229187,306.676483 388.135925,316.839905 382.352325,327.673035 
	C377.693878,336.398773 374.763885,346.061798 371.237885,355.373657 
	C367.300751,365.771149 364.550842,376.380280 364.935944,387.695648 
	C365.338165,399.514343 374.292603,409.282959 386.266998,408.913788 
	C391.761383,408.744415 397.446442,408.372406 402.647919,406.788300 
	C408.507416,405.003754 413.919617,401.750488 419.848083,398.986084 
	C409.861908,387.449249 408.230896,374.710449 410.329315,362.087524 
	C412.667603,348.021637 418.882263,335.197754 429.486877,324.978668 
	C434.102966,320.530426 445.764282,317.384491 450.712555,320.335541 
	C457.029449,324.102844 460.806183,332.152191 451.883911,339.567963 
	C444.147522,345.998138 438.015839,353.416962 434.933258,363.190979 
	C432.516693,370.853119 429.969482,378.371002 433.947906,386.313446 
	C435.231049,388.875031 435.923584,390.501068 439.696930,389.235748 
	C450.884064,385.484314 459.441986,378.479034 465.912689,369.001953 
	C473.276398,358.216888 476.930206,346.086700 479.321930,333.144440 
	C481.950897,318.918518 482.703369,305.173401 479.071442,291.113373 
	C476.043610,279.391968 466.776947,270.043488 455.948639,269.028137 
	C438.399445,267.382568 424.018799,273.978851 411.473053,286.924500 
z"/>
<path fill="none" opacity="1.000000" stroke="none" 
	d="
M162.821350,149.600281 
	C162.906494,158.517944 164.034256,167.221436 162.531723,175.444275 
	C159.677490,191.064667 155.317871,206.409973 151.251389,223.244308 
	C147.340744,215.971100 143.948334,210.247742 141.118225,204.258698 
	C137.027695,195.602341 133.152878,186.831345 129.548630,177.961929 
	C126.682457,170.908798 124.317017,163.649704 121.810196,156.453857 
	C120.118294,151.597260 118.563553,146.692810 116.953728,141.807693 
	C113.633972,131.733688 110.511681,121.586853 106.835281,111.644836 
	C106.114769,109.696388 103.293259,107.340729 101.375443,107.281334 
	C98.036613,107.177910 97.657700,110.443115 98.029388,113.223366 
	C98.609619,117.563469 98.864487,122.044243 100.187073,126.167122 
	C102.720901,134.065796 105.908096,141.754883 108.950996,149.869095 
	C104.794594,147.687744 101.206924,145.343658 97.282021,143.947662 
	C95.434486,143.290543 91.227028,144.073700 91.050583,144.864792 
	C90.468056,147.476532 90.431671,150.809662 91.632957,153.110031 
	C95.628441,160.761017 103.498695,163.357971 110.995438,165.763290 
	C113.468422,166.556732 114.432739,167.535934 115.182045,169.538391 
	C116.687645,173.561935 118.213966,177.577713 119.742386,181.624924 
	C116.130630,181.068146 112.676926,180.145218 109.212898,180.104691 
	C105.251228,180.058350 103.565910,183.429550 106.159340,186.444412 
	C108.652649,189.342896 111.728287,193.030457 115.060265,193.659943 
	C122.995255,195.158951 127.715073,199.070374 130.921204,206.379578 
	C135.284836,216.327606 140.560944,225.875381 145.910858,236.520157 
	C139.059769,232.453278 132.669785,228.894638 126.519279,224.961502 
	C112.610001,216.066772 101.572121,204.416229 92.667747,190.455597 
	C85.582787,179.347519 80.714996,167.525711 76.758308,155.001358 
	C72.571533,141.748657 71.193283,128.348053 72.155258,114.766754 
	C73.093521,101.520126 77.120377,88.905830 82.589783,76.738258 
	C85.856689,69.470512 88.429741,61.890869 91.343369,54.377480 
	C101.730637,69.006012 115.964211,79.840172 129.065765,91.902412 
	C138.738113,100.807457 148.137863,110.468475 153.342178,122.961723 
	C156.903214,131.510178 159.595581,140.420502 162.821350,149.600281 
z"/>
<path fill="none" opacity="1.000000" stroke="none" 
	d="
M351.025513,140.230362 
	C348.170990,147.767563 346.352905,155.542419 342.267181,161.847916 
	C335.901825,171.671494 327.996826,180.497452 320.744263,189.746201 
	C320.280609,189.440475 319.816925,189.134750 319.353241,188.829025 
	C320.236969,183.541641 321.376831,178.281647 321.945374,172.960571 
	C322.833588,164.647354 323.213440,156.280869 324.028717,147.958527 
	C325.238098,135.613235 326.284241,123.234856 328.076141,110.969376 
	C329.424438,101.740410 331.864075,92.672630 333.741089,83.517349 
	C334.036377,82.077042 334.210876,80.493713 333.919312,79.084488 
	C333.626221,77.668030 332.732574,75.296265 332.012177,75.262497 
	C330.272644,75.180954 327.550171,75.698860 326.878418,76.900208 
	C324.549866,81.064270 322.449829,85.489357 321.168365,90.068527 
	C319.866089,94.722145 319.635590,99.675697 318.777710,105.586754 
	C317.183441,103.034065 316.002808,101.257484 314.938416,99.413765 
	C313.182343,96.371880 310.780426,93.613319 307.194275,95.524010 
	C303.300293,97.598717 302.950653,101.484383 304.855530,105.388702 
	C307.800446,111.424614 310.423859,117.665047 313.912933,123.372925 
	C316.764191,128.037354 314.401245,132.133118 314.719299,136.742065 
	C311.460236,135.188950 308.960754,133.879227 306.367767,132.792679 
	C303.247528,131.485199 301.192200,133.081848 302.163269,135.976913 
	C303.660187,140.439636 305.208862,145.853577 308.587830,148.490768 
	C313.732300,152.505890 312.918396,156.633759 311.996460,161.502167 
	C310.465057,169.588821 308.988312,177.685837 307.307831,186.753540 
	C292.290863,162.933533 286.462738,137.516647 289.396332,110.597328 
	C292.991302,77.609215 310.607178,52.920105 338.579315,34.129654 
	C339.471588,38.892780 340.007629,42.839085 340.969391,46.678741 
	C343.548187,56.974205 346.190613,67.256897 349.025513,77.484306 
	C353.374298,93.173157 356.376312,109.050713 354.865021,125.380913 
	C354.412903,130.266388 352.363251,135.004013 351.025513,140.230362 
z"/>
<path fill="none" opacity="1.000000" stroke="none" 
	d="
M108.029434,318.999146 
	C121.956688,325.941528 133.615097,334.961792 142.010849,347.911072 
	C147.879501,356.962708 154.126984,365.768372 160.173157,374.705627 
	C160.786743,375.612671 161.178864,376.669525 162.102081,378.511383 
	C155.625519,377.625641 149.845413,376.956848 144.108994,376.020355 
	C136.608078,374.795776 129.034180,373.784363 121.683311,371.923950 
	C107.299118,368.283508 95.405548,360.302917 84.949066,349.878326 
	C70.355484,335.329254 61.191822,317.028717 50.018017,300.113312 
	C49.317619,299.053040 48.646267,297.973541 48.476055,295.795532 
	C68.199379,303.512177 87.922699,311.228851 108.029434,318.999146 
z"/>
<path fill="none" opacity="1.000000" stroke="none" 
	d="
M411.710327,286.636292 
	C424.018799,273.978851 438.399445,267.382568 455.948639,269.028137 
	C466.776947,270.043488 476.043610,279.391968 479.071442,291.113373 
	C482.703369,305.173401 481.950897,318.918518 479.321930,333.144440 
	C476.930206,346.086700 473.276398,358.216888 465.912689,369.001953 
	C459.441986,378.479034 450.884064,385.484314 439.696930,389.235748 
	C435.923584,390.501068 435.231049,388.875031 433.947906,386.313446 
	C429.969482,378.371002 432.516693,370.853119 434.933258,363.190979 
	C438.015839,353.416962 444.147522,345.998138 451.883911,339.567963 
	C460.806183,332.152191 457.029449,324.102844 450.712555,320.335541 
	C445.764282,317.384491 434.102966,320.530426 429.486877,324.978668 
	C418.882263,335.197754 412.667603,348.021637 410.329315,362.087524 
	C408.230896,374.710449 409.861908,387.449249 419.848083,398.986084 
	C413.919617,401.750488 408.507416,405.003754 402.647919,406.788300 
	C397.446442,408.372406 391.761383,408.744415 386.266998,408.913788 
	C374.292603,409.282959 365.338165,399.514343 364.935944,387.695648 
	C364.550842,376.380280 367.300751,365.771149 371.237885,355.373657 
	C374.763885,346.061798 377.693878,336.398773 382.352325,327.673035 
	C388.135925,316.839905 395.229187,306.676483 402.173157,296.508118 
	C404.646759,292.885834 408.337769,290.094910 411.710327,286.636292 
z"/>
</svg>